<?xml version="1.0" encoding="UTF-8" standalone="no"?>
<!DOCTYPE svg PUBLIC "-//W3C//DTD SVG 1.1//EN" "http://www.w3.org/Graphics/SVG/1.1/DTD/svg11.dtd">
<svg width="100%" height="100%" viewBox="0 0 300 100" version="1.1" xmlns="http://www.w3.org/2000/svg" xmlns:xlink="http://www.w3.org/1999/xlink" xml:space="preserve" xmlns:serif="http://www.serif.com/" style="fill-rule:evenodd;clip-rule:evenodd;">
    <g transform="matrix(1,0,0,1,-41.7594,0.12771)">
        <g transform="matrix(0.631509,0,0,0.566441,75.5453,-88.8187)">
            <path d="M150,246.425L150,285" style="fill-rule:nonzero;stroke:black;stroke-width:2px;"/>
        </g>
        <g transform="matrix(0.517302,-0.362219,0.362219,0.517302,6.61807,-22.5346)">
            <ellipse cx="150" cy="245" rx="5.7" ry="3.99"/>
        </g>
        <g transform="matrix(0.517302,-0.362219,0.362219,0.517302,18.4962,-16.3393)">
            <ellipse cx="175" cy="220" rx="5.7" ry="3.99"/>
        </g>
        <g transform="matrix(0.631509,0,0,0.631509,75.5453,-104.853)">
            <path d="M175,221.425L175,260" style="fill-rule:nonzero;stroke:black;stroke-width:2px;"/>
        </g>
        <g transform="matrix(0.631509,0,0,0.631509,75.5453,-104.853)">
            <path d="M190.5,205L219,205" style="fill-rule:nonzero;"/>
        </g>
        <g transform="matrix(0.631509,0,0,0.631509,75.5453,-104.853)">
            <path d="M190.5,200L219,200" style="fill-rule:nonzero;stroke:black;stroke-width:1px;"/>
        </g>
        <g transform="matrix(0.631509,0,0,0.631509,75.5453,-104.853)">
            <path d="M190.5,195L219,195" style="fill-rule:nonzero;"/>
        </g>
        <g transform="matrix(0.631509,0,0,0.631509,74.9138,-107.853)">
            <path d="M200,195L214.25,199.75L200,204.5L200,195Z" style="fill-rule:nonzero;"/>
        </g>
        <g transform="matrix(0.631509,0,0,0.631509,75.5453,-104.853)">
            <path d="M200,195L200,215" style="fill-rule:nonzero;stroke:black;stroke-width:2px;"/>
        </g>
    </g>
    <g transform="matrix(0.631795,0,0,0.631795,52.558,27.2554)">
        <g transform="matrix(1,0,0,1,4.23034,-34)">
            <rect x="0" y="69" width="150" height="2"/>
        </g>
        <g transform="matrix(1,0,0,1,4.23034,-34)">
            <rect x="0" y="59.5" width="150" height="1"/>
        </g>
        <g transform="matrix(1,0,0,1,4.23034,-34)">
            <rect x="0" y="49.5" width="150" height="1"/>
        </g>
        <g transform="matrix(1,0,0,1,4.23034,-34)">
            <rect x="0" y="39.5" width="150" height="1"/>
        </g>
        <g transform="matrix(1.00333,0,0,1,3.73034,-34)">
            <rect x="0" y="34" width="150" height="2"/>
        </g>
        <g transform="matrix(1.00333,0,0,1,3.73034,-34)">
            <rect x="0" y="104" width="150" height="2"/>
        </g>
        <g transform="matrix(1,0,0,1,4.23034,-34)">
            <rect x="0" y="94.5" width="150" height="1"/>
        </g>
        <g transform="matrix(1,0,0,1,4.23034,-34)">
            <rect x="0" y="84.5" width="150" height="1"/>
        </g>
        <g transform="matrix(1,0,0,1,4.23034,-34)">
            <rect x="0" y="74.5" width="150" height="1"/>
        </g>
        <g transform="matrix(1,0,0,1,4.23034,-34)">
            <rect x="0" y="69" width="150" height="2"/>
        </g>
        <g transform="matrix(1,0,0,1,4.23034,-34)">
            <rect x="90.5" y="69" width="28.5" height="2"/>
        </g>
        <g transform="matrix(1,0,0,1,4.23034,-34)">
            <rect x="150" y="69" width="150" height="2"/>
        </g>
        <g transform="matrix(1,0,0,1,4.23034,-34)">
            <rect x="150" y="59.5" width="150" height="1"/>
        </g>
        <g transform="matrix(1,0,0,1,4.23034,-34)">
            <rect x="150" y="49.5" width="150" height="1"/>
        </g>
        <g transform="matrix(1,0,0,1,4.23034,-34)">
            <path d="M150,45L300,45" style="fill-rule:nonzero;"/>
        </g>
        <g transform="matrix(1,0,0,1,4.23034,-34)">
            <path d="M150,40L300,40" style="fill-rule:nonzero;"/>
        </g>
        <g transform="matrix(1,0,0,1,4.23034,-34)">
            <rect x="150" y="39.5" width="150" height="1"/>
        </g>
        <g transform="matrix(1,0,0,1,4.23034,-34)">
            <path d="M150,35L300,35" style="fill-rule:nonzero;"/>
        </g>
        <g transform="matrix(1.00333,0,0,1,3.73035,-34)">
            <rect x="150" y="34" width="150" height="2"/>
        </g>
        <g transform="matrix(1,0,0,1,4.23034,-34)">
            <path d="M150,105L300,105" style="fill-rule:nonzero;"/>
        </g>
        <g transform="matrix(1.00333,0,0,1,3.73035,-34)">
            <rect x="150" y="104" width="150" height="2"/>
        </g>
        <g transform="matrix(1,0,0,1,4.23034,-34)">
            <path d="M150,100L300,100" style="fill-rule:nonzero;"/>
        </g>
        <g transform="matrix(1,0,0,1,4.23034,-34)">
            <path d="M150,95L300,95" style="fill-rule:nonzero;"/>
        </g>
        <g transform="matrix(1,0,0,1,4.23034,-34)">
            <rect x="150" y="94.5" width="150" height="1"/>
        </g>
        <g transform="matrix(1,0,0,1,4.23034,-34)">
            <path d="M150,85L300,85" style="fill-rule:nonzero;"/>
        </g>
        <g transform="matrix(1,0,0,1,4.23034,-34)">
            <rect x="150" y="84.5" width="150" height="1"/>
        </g>
        <g transform="matrix(1,0,0,1,4.23034,-34)">
            <path d="M150,75L300,75" style="fill-rule:nonzero;"/>
        </g>
        <g transform="matrix(1,0,0,1,4.23034,-34)">
            <rect x="150" y="74.5" width="150" height="1"/>
        </g>
        <g transform="matrix(1,0,0,1,4.23034,-34)">
            <path d="M150,70L300,70" style="fill-rule:nonzero;"/>
        </g>
        <g transform="matrix(1,0,0,1,4.23034,-34)">
            <rect x="150" y="69" width="150" height="2"/>
        </g>
        <g transform="matrix(1,0,0,1,4.23034,-34)">
            <path d="M150,35L150,105" style="fill-rule:nonzero;"/>
        </g>
        <g transform="matrix(1,0,0,1,4.23034,-34)">
            <path d="M140.5,75L169,75" style="fill-rule:nonzero;"/>
        </g>
        <g transform="matrix(1,0,0,1,4.23034,-34)">
            <path d="M140.5,70L169,70" style="fill-rule:nonzero;"/>
        </g>
        <g transform="matrix(1,0,0,1,4.23034,-34)">
            <path d="M240.5,85L269,85" style="fill-rule:nonzero;"/>
        </g>
        <g transform="matrix(1,0,0,1,4.23034,-34)">
            <rect x="240.5" y="84.5" width="28.5" height="1"/>
        </g>
        <g transform="matrix(1,0,0,1,4.23034,-34)">
            <path d="M240.5,75L269,75" style="fill-rule:nonzero;"/>
        </g>
        <g transform="matrix(1,0,0,1,4.23034,-34)">
            <rect x="240.5" y="74.5" width="28.5" height="1"/>
        </g>
        <g transform="matrix(1,0,0,1,4.23034,-34)">
            <path d="M240.5,70L269,70" style="fill-rule:nonzero;"/>
        </g>
        <g transform="matrix(1,0,0,1,4.23034,-34)">
            <rect x="240.5" y="69" width="28.5" height="2"/>
        </g>
        <g transform="matrix(1,0,0,1,4.23034,-34)">
            <path d="M265.5,75L294,75" style="fill-rule:nonzero;"/>
        </g>
        <g transform="matrix(1,0,0,1,4.23034,-34)">
            <rect x="265.5" y="74.5" width="28.5" height="1"/>
        </g>
        <g transform="matrix(1,0,0,1,4.23034,-34)">
            <path d="M265.5,70L294,70" style="fill-rule:nonzero;"/>
        </g>
        <g transform="matrix(1,0,0,1,4.23034,-34)">
            <rect x="265.5" y="69" width="28.5" height="2"/>
        </g>
        <g transform="matrix(1,0,0,1,4.23034,-34)">
            <path d="M300,35L300,105" style="fill-rule:nonzero;"/>
        </g>
    </g>
</svg>
