<?xml version="1.0" encoding="UTF-8" standalone="no"?>
<!DOCTYPE svg PUBLIC "-//W3C//DTD SVG 1.1//EN" "http://www.w3.org/Graphics/SVG/1.1/DTD/svg11.dtd">
<svg width="100%" height="100%" viewBox="0 0 300 100" version="1.1" xmlns="http://www.w3.org/2000/svg" xmlns:xlink="http://www.w3.org/1999/xlink" xml:space="preserve" xmlns:serif="http://www.serif.com/" style="fill-rule:evenodd;clip-rule:evenodd;stroke-linejoin:round;stroke-miterlimit:1.41421;">
    <g transform="matrix(0.819152,-0.573576,0.573576,0.819152,-79.5334,-138.374)">
        <ellipse cx="25" cy="225" rx="5.7" ry="3.99"/>
    </g>
    <g transform="matrix(1,0,0,1,40.8001,-193.344)">
        <rect x="24" y="226.425" width="2" height="38.575"/>
    </g>
    <g transform="matrix(1,0,0,1,118.875,-193.344)">
        <rect x="24" y="226.425" width="2" height="38.575"/>
    </g>
    <g transform="matrix(1,0,0,1,-57.125,-166.669)">
        <path d="M200,195L214.25,199.75L200,204.5L200,195Z" style="fill-rule:nonzero;"/>
    </g>
    <g transform="matrix(1,0,0,1.12314,199.366,-225.98)">
        <rect x="24" y="226.425" width="2" height="38.575"/>
    </g>
    <g transform="matrix(0.843261,0,0,1,101.262,-0.69005)">
        <path d="M153.188,29.016L144.8,29.016L152.145,38.516L160.533,38.516L153.188,29.016Z"/>
    </g>
</svg>
