<?xml version="1.0" encoding="UTF-8" standalone="no"?>
<!DOCTYPE svg PUBLIC "-//W3C//DTD SVG 1.1//EN" "http://www.w3.org/Graphics/SVG/1.1/DTD/svg11.dtd">
<svg width="100%" height="100%" viewBox="0 0 300 100" version="1.1" xmlns="http://www.w3.org/2000/svg" xmlns:xlink="http://www.w3.org/1999/xlink" xml:space="preserve" xmlns:serif="http://www.serif.com/" style="fill-rule:evenodd;clip-rule:evenodd;stroke-linejoin:round;stroke-miterlimit:1.41421;">
    <g transform="matrix(0.631795,0,0,0.631795,52.558,27.2554)">
        <g transform="matrix(1,0,0,1,4.23034,-34)">
            <rect x="0" y="69" width="150" height="2" style="fill-rule:nonzero;"/>
        </g>
        <g transform="matrix(1,0,0,1,4.23034,-34)">
            <rect x="0" y="59.5" width="150" height="1" style="fill-rule:nonzero;"/>
        </g>
        <g transform="matrix(1,0,0,1,4.23034,-34)">
            <rect x="0" y="49.5" width="150" height="1" style="fill-rule:nonzero;"/>
        </g>
        <g transform="matrix(1,0,0,1,4.23034,-34)">
            <rect x="0" y="39.5" width="150" height="1" style="fill-rule:nonzero;"/>
        </g>
        <g transform="matrix(1.00333,0,0,1,3.73034,-34)">
            <rect x="0" y="34" width="150" height="2" style="fill-rule:nonzero;"/>
        </g>
        <g transform="matrix(1.00333,0,0,1,3.73034,-34)">
            <rect x="0" y="104" width="150" height="2" style="fill-rule:nonzero;"/>
        </g>
        <g transform="matrix(1,0,0,1,4.23034,-34)">
            <rect x="0" y="94.5" width="150" height="1" style="fill-rule:nonzero;"/>
        </g>
        <g transform="matrix(1,0,0,1,4.23034,-34)">
            <rect x="0" y="84.5" width="150" height="1" style="fill-rule:nonzero;"/>
        </g>
        <g transform="matrix(1,0,0,1,4.23034,-34)">
            <rect x="0" y="74.5" width="150" height="1" style="fill-rule:nonzero;"/>
        </g>
        <g transform="matrix(1,0,0,1,4.23034,-34)">
            <rect x="0" y="69" width="150" height="2" style="fill-rule:nonzero;"/>
        </g>
        <g transform="matrix(1,0,0,1,4.23034,-34)">
            <rect x="-0.5" y="35" width="1" height="70" style="fill-rule:nonzero;"/>
        </g>
        <g transform="matrix(1,0,0,1,4.23034,-34)">
            <rect x="90.5" y="69" width="28.5" height="2" style="fill-rule:nonzero;"/>
        </g>
        <g transform="matrix(1,0,0,1,4.23034,-34)">
            <rect x="150" y="69" width="150" height="2" style="fill-rule:nonzero;"/>
        </g>
        <g transform="matrix(1,0,0,1,4.23034,-34)">
            <rect x="150" y="59.5" width="150" height="1" style="fill-rule:nonzero;"/>
        </g>
        <g transform="matrix(1,0,0,1,4.23034,-34)">
            <rect x="150" y="49.5" width="150" height="1" style="fill-rule:nonzero;"/>
        </g>
        <g transform="matrix(1,0,0,1,4.23034,-34)">
            <path d="M150,45L300,45" style="fill-rule:nonzero;"/>
        </g>
        <g transform="matrix(1,0,0,1,4.23034,-34)">
            <path d="M150,40L300,40" style="fill-rule:nonzero;"/>
        </g>
        <g transform="matrix(1,0,0,1,4.23034,-34)">
            <rect x="150" y="39.5" width="150" height="1" style="fill-rule:nonzero;"/>
        </g>
        <g transform="matrix(1,0,0,1,4.23034,-34)">
            <path d="M150,35L300,35" style="fill-rule:nonzero;"/>
        </g>
        <g transform="matrix(1.00333,0,0,1,3.73035,-34)">
            <rect x="150" y="34" width="150" height="2" style="fill-rule:nonzero;"/>
        </g>
        <g transform="matrix(1,0,0,1,4.23034,-34)">
            <path d="M150,105L300,105" style="fill-rule:nonzero;"/>
        </g>
        <g transform="matrix(1.00333,0,0,1,3.73035,-34)">
            <rect x="150" y="104" width="150" height="2" style="fill-rule:nonzero;"/>
        </g>
        <g transform="matrix(1,0,0,1,4.23034,-34)">
            <path d="M150,100L300,100" style="fill-rule:nonzero;"/>
        </g>
        <g transform="matrix(1,0,0,1,4.23034,-34)">
            <path d="M150,95L300,95" style="fill-rule:nonzero;"/>
        </g>
        <g transform="matrix(1,0,0,1,4.23034,-34)">
            <rect x="150" y="94.5" width="150" height="1" style="fill-rule:nonzero;"/>
        </g>
        <g transform="matrix(1,0,0,1,4.23034,-34)">
            <path d="M150,90L300,90" style="fill-rule:nonzero;"/>
        </g>
        <g transform="matrix(1,0,0,1,4.23034,-34)">
            <path d="M150,85L300,85" style="fill-rule:nonzero;"/>
        </g>
        <g transform="matrix(1,0,0,1,4.23034,-34)">
            <rect x="150" y="84.5" width="150" height="1" style="fill-rule:nonzero;"/>
        </g>
        <g transform="matrix(1,0,0,1,4.23034,-34)">
            <path d="M150,80L300,80" style="fill-rule:nonzero;"/>
        </g>
        <g transform="matrix(1,0,0,1,4.23034,-34)">
            <path d="M150,75L300,75" style="fill-rule:nonzero;"/>
        </g>
        <g transform="matrix(1,0,0,1,4.23034,-34)">
            <rect x="150" y="74.5" width="150" height="1" style="fill-rule:nonzero;"/>
        </g>
        <g transform="matrix(1,0,0,1,4.23034,-34)">
            <path d="M150,70L300,70" style="fill-rule:nonzero;"/>
        </g>
        <g transform="matrix(1,0,0,1,4.23034,-34)">
            <rect x="150" y="69" width="150" height="2" style="fill-rule:nonzero;"/>
        </g>
        <g transform="matrix(1,0,0,1,4.23034,-34)">
            <path d="M150,35L150,105" style="fill-rule:nonzero;"/>
        </g>
        <g transform="matrix(1,0,0,1,4.23034,-34)">
            <rect x="149.5" y="35" width="1" height="70" style="fill-rule:nonzero;"/>
        </g>
        <g transform="matrix(1,0,0,1,4.23034,-34)">
            <path d="M140.5,80L169,80" style="fill-rule:nonzero;"/>
        </g>
        <g transform="matrix(1,0,0,1,4.23034,-34)">
            <path d="M140.5,75L169,75" style="fill-rule:nonzero;"/>
        </g>
        <g transform="matrix(1,0,0,1,4.23034,-34)">
            <path d="M140.5,70L169,70" style="fill-rule:nonzero;"/>
        </g>
        <g transform="matrix(1,0,0,1,4.23034,-34)">
            <path d="M240.5,85L269,85" style="fill-rule:nonzero;"/>
        </g>
        <g transform="matrix(1,0,0,1,4.23034,-34)">
            <rect x="240.5" y="84.5" width="28.5" height="1" style="fill-rule:nonzero;"/>
        </g>
        <g transform="matrix(1,0,0,1,4.23034,-34)">
            <path d="M240.5,80L269,80" style="fill-rule:nonzero;"/>
        </g>
        <g transform="matrix(1,0,0,1,4.23034,-34)">
            <path d="M240.5,75L269,75" style="fill-rule:nonzero;"/>
        </g>
        <g transform="matrix(1,0,0,1,4.23034,-34)">
            <rect x="240.5" y="74.5" width="28.5" height="1" style="fill-rule:nonzero;"/>
        </g>
        <g transform="matrix(1,0,0,1,4.23034,-34)">
            <path d="M240.5,70L269,70" style="fill-rule:nonzero;"/>
        </g>
        <g transform="matrix(1,0,0,1,4.23034,-34)">
            <rect x="240.5" y="69" width="28.5" height="2" style="fill-rule:nonzero;"/>
        </g>
        <g transform="matrix(1,0,0,1,4.23034,-34)">
            <path d="M265.5,80L294,80" style="fill-rule:nonzero;"/>
        </g>
        <g transform="matrix(1,0,0,1,4.23034,-34)">
            <path d="M265.5,75L294,75" style="fill-rule:nonzero;"/>
        </g>
        <g transform="matrix(1,0,0,1,4.23034,-34)">
            <rect x="265.5" y="74.5" width="28.5" height="1" style="fill-rule:nonzero;"/>
        </g>
        <g transform="matrix(1,0,0,1,4.23034,-34)">
            <path d="M265.5,70L294,70" style="fill-rule:nonzero;"/>
        </g>
        <g transform="matrix(1,0,0,1,4.23034,-34)">
            <rect x="265.5" y="69" width="28.5" height="2" style="fill-rule:nonzero;"/>
        </g>
        <g transform="matrix(1,0,0,1,4.23034,-34)">
            <path d="M300,35L300,105" style="fill-rule:nonzero;"/>
        </g>
        <g transform="matrix(1,0,0,1,4.23034,-34)">
            <rect x="299.5" y="35" width="1" height="70" style="fill-rule:nonzero;"/>
        </g>
    </g>
</svg>
