<?xml version="1.0" encoding="UTF-8" standalone="no"?>
<!DOCTYPE svg PUBLIC "-//W3C//DTD SVG 1.1//EN" "http://www.w3.org/Graphics/SVG/1.1/DTD/svg11.dtd">
<svg width="100%" height="100%" viewBox="0 0 600 300" version="1.1" xmlns="http://www.w3.org/2000/svg" xmlns:xlink="http://www.w3.org/1999/xlink" xml:space="preserve" xmlns:serif="http://www.serif.com/" style="fill-rule:evenodd;clip-rule:evenodd;">
    <g transform="matrix(1,0,0,1,52,22.999)">
        <path d="M0,70L250,70" style="fill:rgb(182,182,182);fill-rule:nonzero;"/>
    </g>
    <g transform="matrix(1,0,0,1,52,22.999)">
        <rect x="0" y="69" width="250" height="2" style="fill:rgb(182,182,182);fill-rule:nonzero;"/>
    </g>
    <g transform="matrix(1,0,0,1,52,22.999)">
        <path d="M0,60L250,60" style="fill:rgb(182,182,182);fill-rule:nonzero;"/>
    </g>
    <g transform="matrix(1,0,0,1,52,22.999)">
        <rect x="0" y="59.5" width="250" height="1" style="fill:rgb(182,182,182);fill-rule:nonzero;"/>
    </g>
    <g transform="matrix(1,0,0,1,52,22.999)">
        <path d="M0,45L250,45" style="fill:rgb(182,182,182);fill-rule:nonzero;"/>
    </g>
    <g transform="matrix(1,0,0,1,52,22.999)">
        <rect x="0" y="44.5" width="250" height="1" style="fill:rgb(182,182,182);fill-rule:nonzero;"/>
    </g>
    <g transform="matrix(1,0,0,1,52,22.999)">
        <path d="M0,35L250,35" style="fill:rgb(182,182,182);fill-rule:nonzero;"/>
    </g>
    <g transform="matrix(1,0,0,1,52,22.999)">
        <rect x="0" y="34" width="250" height="2" style="fill:rgb(182,182,182);fill-rule:nonzero;"/>
    </g>
    <g transform="matrix(1,0,0,1,52,22.999)">
        <path d="M0,105L250,105" style="fill:rgb(182,182,182);fill-rule:nonzero;"/>
    </g>
    <g transform="matrix(1,0,0,1,52,22.999)">
        <rect x="0" y="104" width="250" height="2" style="fill:rgb(182,182,182);fill-rule:nonzero;"/>
    </g>
    <g transform="matrix(1,0,0,1,52,22.999)">
        <path d="M0,95L250,95" style="fill:rgb(182,182,182);fill-rule:nonzero;"/>
    </g>
    <g transform="matrix(1,0,0,1,52,22.999)">
        <rect x="0" y="94.5" width="250" height="1" style="fill:rgb(182,182,182);fill-rule:nonzero;"/>
    </g>
    <g transform="matrix(1,0,0,1,52,22.999)">
        <path d="M0,80L250,80" style="fill:rgb(182,182,182);fill-rule:nonzero;"/>
    </g>
    <g transform="matrix(1,0,0,1,52,22.999)">
        <rect x="0" y="79.5" width="250" height="1" style="fill:rgb(182,182,182);fill-rule:nonzero;"/>
    </g>
    <g transform="matrix(1,0,0,1,52,22.999)">
        <path d="M0,70L250,70" style="fill:rgb(182,182,182);fill-rule:nonzero;"/>
    </g>
    <g transform="matrix(1,0,0,1,52,22.999)">
        <rect x="0" y="69" width="250" height="2" style="fill:rgb(182,182,182);fill-rule:nonzero;"/>
    </g>
    <g transform="matrix(1,0,0,1,52,22.999)">
        <path d="M0,35L0,105" style="fill:rgb(182,182,182);fill-rule:nonzero;"/>
    </g>
    <g transform="matrix(1,0,0,2.65717,52,-36.002)">
        <rect x="-0.5" y="35" width="1" height="70" style="fill:rgb(182,182,182);fill-rule:nonzero;"/>
    </g>
    <g transform="matrix(1,0,0,2.65717,302,-36.002)">
        <rect x="-0.5" y="35" width="1" height="70" style="fill:rgb(182,182,182);fill-rule:nonzero;"/>
    </g>
    <g transform="matrix(1,0,0,2.65717,551.5,-36.002)">
        <rect x="-0.5" y="35" width="1" height="70" style="fill:rgb(182,182,182);fill-rule:nonzero;"/>
    </g>
    <g transform="matrix(1,0,0,1,52,22.999)">
        <path d="M250,70L500,70" style="fill:rgb(182,182,182);fill-rule:nonzero;"/>
    </g>
    <g transform="matrix(1,0,0,1,52,22.999)">
        <rect x="250" y="69" width="250" height="2" style="fill:rgb(182,182,182);fill-rule:nonzero;"/>
    </g>
    <g transform="matrix(1,0,0,1,52,22.999)">
        <path d="M250,60L500,60" style="fill:rgb(182,182,182);fill-rule:nonzero;"/>
    </g>
    <g transform="matrix(1,0,0,1,52,22.999)">
        <rect x="250" y="59.5" width="250" height="1" style="fill:rgb(182,182,182);fill-rule:nonzero;"/>
    </g>
    <g transform="matrix(1,0,0,1,52,22.999)">
        <path d="M250,45L500,45" style="fill:rgb(182,182,182);fill-rule:nonzero;"/>
    </g>
    <g transform="matrix(1,0,0,1,52,22.999)">
        <rect x="250" y="44.5" width="250" height="1" style="fill:rgb(182,182,182);fill-rule:nonzero;"/>
    </g>
    <g transform="matrix(1,0,0,1,52,22.999)">
        <path d="M250,35L500,35" style="fill:rgb(182,182,182);fill-rule:nonzero;"/>
    </g>
    <g transform="matrix(1,0,0,1,52,22.999)">
        <rect x="250" y="34" width="250" height="2" style="fill:rgb(182,182,182);fill-rule:nonzero;"/>
    </g>
    <g transform="matrix(1,0,0,1,52,22.999)">
        <path d="M250,105L500,105" style="fill:rgb(182,182,182);fill-rule:nonzero;"/>
    </g>
    <g transform="matrix(1,0,0,1,52,22.999)">
        <rect x="250" y="104" width="250" height="2" style="fill:rgb(182,182,182);fill-rule:nonzero;"/>
    </g>
    <g transform="matrix(1,0,0,1,52,22.999)">
        <path d="M250,95L500,95" style="fill:rgb(182,182,182);fill-rule:nonzero;"/>
    </g>
    <g transform="matrix(1,0,0,1,52,22.999)">
        <rect x="250" y="94.5" width="250" height="1" style="fill:rgb(182,182,182);fill-rule:nonzero;"/>
    </g>
    <g transform="matrix(1,0,0,1,52,22.999)">
        <path d="M250,80L500,80" style="fill:rgb(182,182,182);fill-rule:nonzero;"/>
    </g>
    <g transform="matrix(1,0,0,1,52,22.999)">
        <rect x="250" y="79.5" width="250" height="1" style="fill:rgb(182,182,182);fill-rule:nonzero;"/>
    </g>
    <g transform="matrix(1,0,0,1,52,22.999)">
        <path d="M250,70L500,70" style="fill:rgb(182,182,182);fill-rule:nonzero;"/>
    </g>
    <g transform="matrix(1,0,0,1,52,22.999)">
        <rect x="250" y="69" width="250" height="2" style="fill:rgb(182,182,182);fill-rule:nonzero;"/>
    </g>
    <g transform="matrix(1,0,0,1,52,22.999)">
        <path d="M250,35L250,105" style="fill:rgb(182,182,182);fill-rule:nonzero;"/>
    </g>
    <g transform="matrix(1,0,0,1,52,22.999)">
        <rect x="249.5" y="35" width="1" height="70" style="fill:rgb(182,182,182);fill-rule:nonzero;"/>
    </g>
    <g transform="matrix(1,0,0,1,52,-37.999)">
        <path d="M0,245L250,245" style="fill:rgb(182,182,182);fill-rule:nonzero;"/>
    </g>
    <g transform="matrix(1,0,0,1,52,-37.999)">
        <rect x="0" y="244" width="250" height="2" style="fill:rgb(182,182,182);fill-rule:nonzero;"/>
    </g>
    <g transform="matrix(1,0,0,1,52,-37.999)">
        <path d="M0,235L250,235" style="fill:rgb(182,182,182);fill-rule:nonzero;"/>
    </g>
    <g transform="matrix(1,0,0,1,52,-37.999)">
        <rect x="0" y="234.5" width="250" height="1" style="fill:rgb(182,182,182);fill-rule:nonzero;"/>
    </g>
    <g transform="matrix(1,0,0,1,52,-37.999)">
        <path d="M0,220L250,220" style="fill:rgb(182,182,182);fill-rule:nonzero;"/>
    </g>
    <g transform="matrix(1,0,0,1,52,-37.999)">
        <rect x="0" y="219.5" width="250" height="1" style="fill:rgb(182,182,182);fill-rule:nonzero;"/>
    </g>
    <g transform="matrix(1,0,0,1,52,-37.999)">
        <path d="M0,210L250,210" style="fill:rgb(182,182,182);fill-rule:nonzero;"/>
    </g>
    <g transform="matrix(1,0,0,1,52,-37.999)">
        <rect x="0" y="209" width="250" height="2" style="fill:rgb(182,182,182);fill-rule:nonzero;"/>
    </g>
    <g transform="matrix(1,0,0,1,52,-37.999)">
        <path d="M0,280L250,280" style="fill:rgb(182,182,182);fill-rule:nonzero;"/>
    </g>
    <g transform="matrix(1,0,0,1,52,-37.999)">
        <rect x="0" y="279" width="250" height="2" style="fill:rgb(182,182,182);fill-rule:nonzero;"/>
    </g>
    <g transform="matrix(1,0,0,1,52,-37.999)">
        <path d="M0,270L250,270" style="fill:rgb(182,182,182);fill-rule:nonzero;"/>
    </g>
    <g transform="matrix(1,0,0,1,52,-37.999)">
        <rect x="0" y="269.5" width="250" height="1" style="fill:rgb(182,182,182);fill-rule:nonzero;"/>
    </g>
    <g transform="matrix(1,0,0,1,52,-37.999)">
        <path d="M0,255L250,255" style="fill:rgb(182,182,182);fill-rule:nonzero;"/>
    </g>
    <g transform="matrix(1,0,0,1,52,-37.999)">
        <rect x="0" y="254.5" width="250" height="1" style="fill:rgb(182,182,182);fill-rule:nonzero;"/>
    </g>
    <g transform="matrix(1,0,0,1,52,-37.999)">
        <path d="M0,245L250,245" style="fill:rgb(182,182,182);fill-rule:nonzero;"/>
    </g>
    <g transform="matrix(1,0,0,1,52,-37.999)">
        <rect x="0" y="244" width="250" height="2" style="fill:rgb(182,182,182);fill-rule:nonzero;"/>
    </g>
    <g transform="matrix(1,0,0,1,52,-37.999)">
        <path d="M0,210L0,280" style="fill:rgb(182,182,182);fill-rule:nonzero;"/>
    </g>
    <g transform="matrix(1,0,0,1,52,-37.999)">
        <path d="M250,245L500,245" style="fill:rgb(182,182,182);fill-rule:nonzero;"/>
    </g>
    <g transform="matrix(1,0,0,1,52,-37.999)">
        <rect x="250" y="244" width="250" height="2" style="fill:rgb(182,182,182);fill-rule:nonzero;"/>
    </g>
    <g transform="matrix(1,0,0,1,52,-37.999)">
        <path d="M250,235L500,235" style="fill:rgb(182,182,182);fill-rule:nonzero;"/>
    </g>
    <g transform="matrix(1,0,0,1,52,-37.999)">
        <rect x="250" y="234.5" width="250" height="1" style="fill:rgb(182,182,182);fill-rule:nonzero;"/>
    </g>
    <g transform="matrix(1,0,0,1,52,-37.999)">
        <path d="M250,220L500,220" style="fill:rgb(182,182,182);fill-rule:nonzero;"/>
    </g>
    <g transform="matrix(1,0,0,1,52,-37.999)">
        <rect x="250" y="219.5" width="250" height="1" style="fill:rgb(182,182,182);fill-rule:nonzero;"/>
    </g>
    <g transform="matrix(1,0,0,1,52,-37.999)">
        <path d="M250,210L500,210" style="fill:rgb(182,182,182);fill-rule:nonzero;"/>
    </g>
    <g transform="matrix(1,0,0,1,52,-37.999)">
        <rect x="250" y="209" width="250" height="2" style="fill:rgb(182,182,182);fill-rule:nonzero;"/>
    </g>
    <g transform="matrix(1,0,0,1,52,-37.999)">
        <path d="M250,280L500,280" style="fill:rgb(182,182,182);fill-rule:nonzero;"/>
    </g>
    <g transform="matrix(1,0,0,1,52,-37.999)">
        <rect x="250" y="279" width="250" height="2" style="fill:rgb(182,182,182);fill-rule:nonzero;"/>
    </g>
    <g transform="matrix(1,0,0,1,52,-37.999)">
        <path d="M250,270L500,270" style="fill:rgb(182,182,182);fill-rule:nonzero;"/>
    </g>
    <g transform="matrix(1,0,0,1,52,-37.999)">
        <rect x="250" y="269.5" width="250" height="1" style="fill:rgb(182,182,182);fill-rule:nonzero;"/>
    </g>
    <g transform="matrix(1,0,0,1,52,-37.999)">
        <path d="M250,255L500,255" style="fill:rgb(182,182,182);fill-rule:nonzero;"/>
    </g>
    <g transform="matrix(1,0,0,1,52,-37.999)">
        <rect x="250" y="254.5" width="250" height="1" style="fill:rgb(182,182,182);fill-rule:nonzero;"/>
    </g>
    <g transform="matrix(1,0,0,1,52,-37.999)">
        <path d="M250,245L500,245" style="fill:rgb(182,182,182);fill-rule:nonzero;"/>
    </g>
    <g transform="matrix(1,0,0,1,52,-37.999)">
        <rect x="250" y="244" width="250" height="2" style="fill:rgb(182,182,182);fill-rule:nonzero;"/>
    </g>
    <g transform="matrix(1,0,0,1,52,-37.999)">
        <path d="M250,210L250,280" style="fill:rgb(182,182,182);fill-rule:nonzero;"/>
    </g>
    <g transform="matrix(1,0,0,1,52,-37.999)">
        <rect x="249.5" y="210" width="1" height="70" style="fill:rgb(182,182,182);fill-rule:nonzero;"/>
    </g>
    <g transform="matrix(1,0,0,1,-48,-103.015)">
        <g transform="matrix(1,0,0,1,100,100)">
            <path d="M0,205L31.25,205" style="fill-rule:nonzero;stroke:black;stroke-width:1px;"/>
        </g>
        <g transform="matrix(1,0,0,1,100,100)">
            <circle cx="0" cy="205" r="4"/>
        </g>
        <g transform="matrix(1,0,0,1,100,100)">
            <path d="M31.25,170L62.5,170" style="fill-rule:nonzero;stroke:black;stroke-width:1px;"/>
        </g>
        <g transform="matrix(1,0,0,1,100,100)">
            <circle cx="31.25" cy="170" r="4"/>
        </g>
        <g transform="matrix(1,0,0,1,100,100)">
            <path d="M62.5,175L93.75,175" style="fill-rule:nonzero;stroke:black;stroke-width:1px;"/>
        </g>
        <g transform="matrix(1,0,0,1,100,100)">
            <circle cx="62.5" cy="175" r="3.5" style="fill:white;stroke:black;stroke-width:1px;"/>
        </g>
        <g transform="matrix(1,0,0,1,100,100)">
            <path d="M58.5,175C58.5,172.806 60.306,171 62.5,171C64.694,171 66.5,172.806 66.5,175" style="fill-rule:nonzero;"/>
        </g>
        <g transform="matrix(1,0,0,1,100,100)">
            <path d="M93.75,210L125,210" style="fill-rule:nonzero;stroke:black;stroke-width:1px;"/>
        </g>
        <g transform="matrix(1,0,0,1,100,100)">
            <circle cx="93.75" cy="210" r="3.5" style="fill:white;stroke:black;stroke-width:1px;"/>
        </g>
        <g transform="matrix(1,0,0,1,100,100)">
            <path d="M89.75,210C89.75,207.806 91.556,206 93.75,206C95.944,206 97.75,207.806 97.75,210" style="fill-rule:nonzero;"/>
        </g>
        <g transform="matrix(1,0,0,1,100,100)">
            <path d="M125,215L156.25,215" style="fill-rule:nonzero;stroke:black;stroke-width:1px;"/>
        </g>
        <g transform="matrix(1,0,0,1,100,100)">
            <circle cx="125" cy="215" r="4"/>
        </g>
        <g transform="matrix(1,0,0,1,100,100)">
            <path d="M156.25,180L187.5,180" style="fill-rule:nonzero;stroke:black;stroke-width:1px;"/>
        </g>
        <g transform="matrix(1,0,0,1,100,100)">
            <circle cx="156.25" cy="180" r="4"/>
        </g>
        <g transform="matrix(1,0,0,1,100,100)">
            <path d="M187.5,185L218.75,185" style="fill-rule:nonzero;stroke:black;stroke-width:1px;"/>
        </g>
        <g transform="matrix(1,0,0,1,100,100)">
            <circle cx="187.5" cy="185" r="4"/>
        </g>
        <g transform="matrix(1,0,0,1,100,100)">
            <path d="M218.75,220L250,220" style="fill-rule:nonzero;stroke:black;stroke-width:1px;"/>
        </g>
        <g transform="matrix(1,0,0,1,100,100)">
            <circle cx="218.75" cy="220" r="4"/>
        </g>
        <g transform="matrix(1,0,0,1,100,100)">
            <path d="M250,225L281.25,225" style="fill-rule:nonzero;stroke:black;stroke-width:1px;"/>
        </g>
        <g transform="matrix(1,0,0,1,100,100)">
            <circle cx="250" cy="225" r="4"/>
        </g>
        <g transform="matrix(1,0,0,1,100,100)">
            <path d="M281.25,190L312.5,190" style="fill-rule:nonzero;stroke:black;stroke-width:1px;"/>
        </g>
        <g transform="matrix(1,0,0,1,100,100)">
            <circle cx="281.25" cy="190" r="4"/>
        </g>
        <g transform="matrix(1,0,0,1,100,100)">
            <path d="M312.5,225L343.75,225" style="fill-rule:nonzero;stroke:black;stroke-width:1px;"/>
        </g>
        <g transform="matrix(1,0,0,1,100,100)">
            <circle cx="312.5" cy="225" r="3.5" style="fill:white;stroke:black;stroke-width:1px;"/>
        </g>
        <g transform="matrix(1,0,0,1,100,100)">
            <path d="M308.5,225C308.5,222.806 310.306,221 312.5,221C314.694,221 316.5,222.806 316.5,225" style="fill-rule:nonzero;"/>
        </g>
        <g transform="matrix(1,0,0,1,100,100)">
            <path d="M343.75,190L375,190" style="fill-rule:nonzero;stroke:black;stroke-width:1px;"/>
        </g>
        <g transform="matrix(1,0,0,1,100,100)">
            <circle cx="343.75" cy="190" r="3.5" style="fill:white;stroke:black;stroke-width:1px;"/>
        </g>
        <g transform="matrix(1,0,0,1,100,100)">
            <path d="M339.75,190C339.75,187.806 341.556,186 343.75,186C345.944,186 347.75,187.806 347.75,190" style="fill-rule:nonzero;"/>
        </g>
        <g transform="matrix(1,0,0,1,100,100)">
            <path d="M375,220L406.25,220" style="fill-rule:nonzero;stroke:black;stroke-width:1px;"/>
        </g>
        <g transform="matrix(1,0,0,1,100,100)">
            <circle cx="375" cy="220" r="4"/>
        </g>
        <g transform="matrix(1,0,0,1,100,100)">
            <path d="M406.25,185L437.5,185" style="fill-rule:nonzero;stroke:black;stroke-width:1px;"/>
        </g>
        <g transform="matrix(1,0,0,1,100,100)">
            <circle cx="406.25" cy="185" r="4"/>
        </g>
        <g transform="matrix(1,0,0,1,100,100)">
            <path d="M437.5,190L468.75,190" style="fill-rule:nonzero;stroke:black;stroke-width:1px;"/>
        </g>
        <g transform="matrix(1,0,0,1,100,100)">
            <circle cx="437.5" cy="190" r="4"/>
        </g>
        <g transform="matrix(1,0,0,1,100,100)">
            <path d="M468.75,225L500,225" style="fill-rule:nonzero;stroke:black;stroke-width:1px;"/>
        </g>
        <g transform="matrix(1,0,0,1,100,100)">
            <circle cx="468.75" cy="225" r="4"/>
        </g>
    </g>
    <g transform="matrix(1,0,0,1,-48,-42.0094)">
        <g transform="matrix(1,0,0,1,100,100)">
            <path d="M0,45L125,45" style="fill-rule:nonzero;stroke:black;stroke-width:1px;"/>
        </g>
        <g transform="matrix(1,0,0,1,100,100)">
            <circle cx="0" cy="45" r="4"/>
        </g>
        <g transform="matrix(1,0,0,1,100,100)">
            <path d="M0,30L125,30" style="fill-rule:nonzero;stroke:black;stroke-width:1px;"/>
        </g>
        <g transform="matrix(1,0,0,1,100,100)">
            <circle cx="0" cy="30" r="4"/>
        </g>
        <g transform="matrix(1,0,0,1,100,100)">
            <path d="M0,20L125,20" style="fill-rule:nonzero;stroke:black;stroke-width:1px;"/>
        </g>
        <g transform="matrix(1,0,0,1,100,100)">
            <circle cx="0" cy="20" r="3.5" style="fill:white;stroke:black;stroke-width:1px;"/>
        </g>
        <g transform="matrix(1,0,0,1,100,100)">
            <path d="M-4,20C-4,17.806 -2.194,16 0,16C2.194,16 4,17.806 4,20" style="fill-rule:nonzero;"/>
        </g>
        <g transform="matrix(1,0,0,1,100,100)">
            <path d="M125,40L250,40" style="fill-rule:nonzero;stroke:black;stroke-width:1px;"/>
        </g>
        <g transform="matrix(1,0,0,1,100,100)">
            <circle cx="125" cy="40" r="4"/>
        </g>
        <g transform="matrix(1,0,0,1,100,100)">
            <path d="M125,30L250,30" style="fill-rule:nonzero;stroke:black;stroke-width:1px;"/>
        </g>
        <g transform="matrix(1,0,0,1,100,100)">
            <circle cx="125" cy="30" r="4"/>
        </g>
        <g transform="matrix(1,0,0,1,100,100)">
            <path d="M125,20L250,20" style="fill-rule:nonzero;stroke:black;stroke-width:1px;"/>
        </g>
        <g transform="matrix(1,0,0,1,100,100)">
            <circle cx="125" cy="20" r="3.5" style="fill:white;stroke:black;stroke-width:1px;"/>
        </g>
        <g transform="matrix(1,0,0,1,100,100)">
            <path d="M121,20C121,17.806 122.806,16 125,16C127.194,16 129,17.806 129,20" style="fill-rule:nonzero;"/>
        </g>
        <g transform="matrix(1,0,0,1,100,100)">
            <path d="M250,20L281.25,20" style="fill-rule:nonzero;stroke:black;stroke-width:1px;"/>
        </g>
        <g transform="matrix(1,0,0,1,100,100)">
            <circle cx="250" cy="20" r="3.5" style="fill:white;stroke:black;stroke-width:1px;"/>
        </g>
        <g transform="matrix(1,0,0,1,100,100)">
            <path d="M246,20C246,17.806 247.806,16 250,16C252.194,16 254,17.806 254,20" style="fill-rule:nonzero;"/>
        </g>
        <g transform="matrix(1,0,0,1,100,100)">
            <path d="M281.25,5L296.875,5" style="fill-rule:nonzero;stroke:black;stroke-width:1px;"/>
        </g>
        <g transform="matrix(1,0,0,1,100,100)">
            <circle cx="281.25" cy="5" r="4"/>
        </g>
        <g transform="matrix(1,0,0,1,100,100)">
            <path d="M296.875,15L312.5,15" style="fill-rule:nonzero;stroke:black;stroke-width:1px;"/>
        </g>
        <g transform="matrix(1,0,0,1,100,100)">
            <circle cx="296.875" cy="15" r="4"/>
        </g>
        <g transform="matrix(1,0,0,1,100,100)">
            <path d="M312.5,20L320.313,20" style="fill-rule:nonzero;stroke:black;stroke-width:1px;"/>
        </g>
        <g transform="matrix(1,0,0,1,100,100)">
            <circle cx="312.5" cy="20" r="3.5" style="fill:white;stroke:black;stroke-width:1px;"/>
        </g>
        <g transform="matrix(1,0,0,1,100,100)">
            <path d="M308.5,20C308.5,17.806 310.306,16 312.5,16C314.694,16 316.5,17.806 316.5,20" style="fill-rule:nonzero;"/>
        </g>
        <g transform="matrix(1,0,0,1,100,100)">
            <path d="M320.313,25L328.125,25" style="fill-rule:nonzero;stroke:black;stroke-width:1px;"/>
        </g>
        <g transform="matrix(1,0,0,1,100,100)">
            <circle cx="320.313" cy="25" r="4"/>
        </g>
        <g transform="matrix(1,0,0,1,100,100)">
            <path d="M328.125,30L343.75,30" style="fill-rule:nonzero;stroke:black;stroke-width:1px;"/>
        </g>
        <g transform="matrix(1,0,0,1,100,100)">
            <circle cx="328.125" cy="30" r="4"/>
        </g>
        <g transform="matrix(1,0,0,1,100,100)">
            <path d="M343.75,35L359.375,35" style="fill-rule:nonzero;stroke:black;stroke-width:1px;"/>
        </g>
        <g transform="matrix(1,0,0,1,100,100)">
            <circle cx="343.75" cy="35" r="3.5" style="fill:white;stroke:black;stroke-width:1px;"/>
        </g>
        <g transform="matrix(1,0,0,1,100,100)">
            <path d="M339.75,35C339.75,32.806 341.556,31 343.75,31C345.944,31 347.75,32.806 347.75,35" style="fill-rule:nonzero;"/>
        </g>
        <g transform="matrix(1,0,0,1,100,100)">
            <path d="M359.375,30L375,30" style="fill-rule:nonzero;stroke:black;stroke-width:1px;"/>
        </g>
        <g transform="matrix(1,0,0,1,100,100)">
            <circle cx="359.375" cy="30" r="4"/>
        </g>
        <g transform="matrix(1,0,0,1,100,100)">
            <path d="M375,60L437.5,60" style="fill-rule:nonzero;stroke:black;stroke-width:1px;"/>
        </g>
        <g transform="matrix(1,0,0,1,100,100)">
            <circle cx="375" cy="60" r="4"/>
        </g>
        <g transform="matrix(1,0,0,1,100,100)">
            <path d="M375,45L437.5,45" style="fill-rule:nonzero;stroke:black;stroke-width:1px;"/>
        </g>
        <g transform="matrix(1,0,0,1,100,100)">
            <circle cx="375" cy="45" r="4"/>
        </g>
        <g transform="matrix(1,0,0,1,100,100)">
            <path d="M375,35L437.5,35" style="fill-rule:nonzero;stroke:black;stroke-width:1px;"/>
        </g>
        <g transform="matrix(1,0,0,1,100,100)">
            <circle cx="375" cy="35" r="3.5" style="fill:white;stroke:black;stroke-width:1px;"/>
        </g>
        <g transform="matrix(1,0,0,1,100,100)">
            <path d="M371,35C371,32.806 372.806,31 375,31C377.194,31 379,32.806 379,35" style="fill-rule:nonzero;"/>
        </g>
        <g transform="matrix(1,0,0,1,100,100)">
            <path d="M437.5,40L468.75,40" style="fill-rule:nonzero;stroke:black;stroke-width:1px;"/>
        </g>
        <g transform="matrix(1,0,0,1,100,100)">
            <circle cx="437.5" cy="40" r="4"/>
        </g>
        <g transform="matrix(1,0,0,1,100,100)">
            <path d="M468.75,45L500,45" style="fill-rule:nonzero;stroke:black;stroke-width:1px;"/>
        </g>
        <g transform="matrix(1,0,0,1,100,100)">
            <circle cx="468.75" cy="45" r="4"/>
        </g>
    </g>
</svg>
